<svg enable-background="new 0 0 240 57" height="57" viewBox="0 0 240 57" width="240" xmlns="http://www.w3.org/2000/svg"><g fill="#fff"><path d="m29.8 24.5h1v-15.9h-1.6v9.9l.2 2.3h-.1l-.9-2.3-5.7-10.1h-1v15.8h1.6v-9.9l-.3-2.4h.1l1 2.4z"/><path d="m38.1 24.2h7v-1.5h-5.4v-5.7h4.8v-1.5h-4.8v-5.3h5.3v-1.6h-6.9z"/><path d="m52.6 8.6h-1.8l3.5 15.8h1l2.5-10.2.3-2.4h.1l.3 2.4 2.5 10.3h1l3.5-15.8h-1.7l-2 10.3-.3 2.6-.3-2.6-2.4-10.4h-1l-2.5 10.3-.3 2.6-.3-2.6z"/><path d="m9.8 47h1.7v-6.2l4.1-9.4h-1.8l-2.8 6.8-.3 1.4-.3-1.4-2.8-6.8h-1.9l4.1 9.4z"/><path d="m20.6 42.6c.2 1 .5 1.8.9 2.5s.9 1.2 1.6 1.6 1.4.6 2.4.6c1.7 0 3-.7 3.9-2 .9-1.4 1.3-3.4 1.3-6 0-1.2-.1-2.3-.3-3.3s-.5-1.8-.9-2.5-.9-1.2-1.6-1.6-1.4-.6-2.4-.6c-1.7 0-3 .7-3.9 2-.8 1.4-1.3 3.4-1.3 6 0 1.2.1 2.3.3 3.3zm2.3-8.3c.6-1.1 1.4-1.6 2.5-1.6.6 0 1.2.2 1.6.5.4.4.8.8 1 1.4.3.6.5 1.3.6 2.1s.2 1.6.2 2.5c0 2.2-.3 3.9-.9 4.9-.6 1.1-1.4 1.6-2.5 1.6-.6 0-1.1-.2-1.6-.5-.4-.4-.8-.8-1-1.4-.3-.6-.5-1.3-.6-2.1s-.2-1.6-.2-2.5c.1-2.2.3-3.8.9-4.9z"/><path d="m37.4 47h1.7v-7.1l1.7.3 3.3 6.8h1.9l-3-6.2-.9-.8c.8-.3 1.5-.7 2-1.5.5-.7.8-1.7.8-3 0-.8-.1-1.5-.3-2s-.5-1-.9-1.3-.8-.6-1.4-.7c-.5-.1-1.1-.2-1.6-.2s-1 0-1.6.1-1.1.1-1.6.3v15.3zm1.7-14.1c.2 0 .4-.1.7-.1h.9c.8 0 1.4.3 1.8.8s.6 1.2.6 2c0 1.1-.2 1.9-.7 2.4s-1.2.8-2 .8h-1.3z"/><path d="m59.5 47h2.1l-4.5-7.3-.9-.9.8-.7 4.1-6.7h-1.9l-4.2 7-.8.3v-7.3h-1.7v15.6h1.7v-7.2h.8z"/><path d="m86.4 8.6.2.7c-3 8.8-7.9 19.5-14.8 32.1-1.3 1-2 1.9-2 2.6v2.2l.2.2-.2.2v.2c2 2.3 3.3 3.5 4.1 3.5h.2c6.2-1.7 11.2-3 14.8-3.7 8.6-1.2 12.8-2 12.8-2.4l-2-2h-1.3l-.2-1.2 2.2-1.1v-.4h-1.4v-.7h.6v-.4h-1.3l-1.7-.2-13.5.8 1.7-3.1c6.9-14.7 10.9-22.9 11.8-24.5 0-2.2-1.9-4.1-5.7-5.4h-1.3c-1.2 0-2.3.9-3.2 2.6z"/><path d="m115.2 12.6c-10.5 5.9-15.7 12.4-15.7 19.7v1.6c.2 2.6.5 3.9.9 4 3.2 7.5 8.5 11.2 15.8 11.2h2.6c1.9 0 4.2-.4 7-1.1 8.3-2.8 12.5-8.9 12.5-18.6v-1.1c0-3.9-1.8-8.1-5.4-12.5v-.2c2.3-.5 3.5-1.1 3.5-1.8v-1.1l-.2-.2c-1.6-3-3.1-4.5-4.7-4.5h-.2c-4.1-.1-9.4 1.5-16.1 4.6zm-2.1 12.8c6-5.4 11.4-8.3 16-9 .2 0 .5 1.1.9 3.4l-.2.7c.3.5.5 1.7.7 3.8-.3 2.5-.7 4.5-1.4 6.1-4.3 5.8-9 8.7-14.1 8.7h-1.9c-3.3-.4-4.9-1.9-4.9-4.5v-.2c0-2.9 1.6-5.9 4.9-9z"/><path d="m138.5 9.2h-3c-1.2.9-1.8 1.8-1.8 2.8v.5l.7 2.8c1.1 2.9 3.2 4.4 6.5 4.4l8.6-1.4-1.9 4.4c-7.4 13.3-11.1 21.5-11.1 24.6l.7 1.2c1.5 1 2.3 1.7 2.3 2.1h.2l.2-.2c0 .8.5 1.1 1.4 1.1l.9.9c.6 0 1.4-.5 2.3-1.4 1.6-4.3 6.4-14.4 14.6-30.2.7-2.9 1.6-4.4 2.8-4.4l13.6-1.6v-.5c0-.4-.3-.6-.9-.7 0-1.2-.5-1.8-1.4-1.8v-.2l.2-.2v-.2l-1.1-.2v-.5l.2-.2-.2-.2h.4v-.6h-.9v-.3h2.5v-.2c0-.4-.4-.6-1.1-.7l.2-.2c-.4-.8-1-1.2-1.9-1.2h-4.4l-4.4-.2c-11.3 1.7-19.3 2.5-24.2 2.5z"/><path d="m171.5 9.2h-3c-1.2.9-1.8 1.8-1.8 2.8v.5l.7 2.8c1.1 2.9 3.2 4.4 6.5 4.4l8.6-1.4-1.9 4.4c-7.4 13.3-11.1 21.5-11.1 24.6l.7 1.2c1.5 1 2.3 1.7 2.3 2.1h.2l.2-.2c0 .8.5 1.1 1.4 1.1l.9.9c.6 0 1.4-.5 2.3-1.4 1.6-4.3 6.4-14.4 14.6-30.2.7-2.9 1.6-4.4 2.8-4.4l13.6-1.6v-.5c0-.4-.3-.6-.9-.7 0-1.2-.5-1.8-1.4-1.8v-.2l.2-.2v-.2l-1.1-.2v-.5l.2-.2-.2-.2h.4v-.6h-.9v-.3h2.5v-.2c0-.4-.4-.6-1.1-.7l.2-.2c-.4-.8-1-1.2-1.9-1.2h-4.4l-4.4-.2c-11.2 1.7-19.3 2.5-24.2 2.5z"/><path d="m210.7 12.6c-10.5 5.9-15.7 12.5-15.7 19.7v1.6c.2 2.6.5 3.9.9 4 3.2 7.5 8.5 11.2 15.8 11.2h2.6c1.9 0 4.2-.4 7-1.1 8.3-2.8 12.5-8.9 12.5-18.6v-1.1c0-3.9-1.8-8.1-5.4-12.5v-.2c2.3-.5 3.5-1.1 3.5-1.8v-1.1l-.2-.2c-1.6-3-3.1-4.5-4.7-4.5h-.2c-4.1-.1-9.5 1.5-16.1 4.6zm-2.1 12.8c6-5.4 11.4-8.3 16-9 .2 0 .5 1.1.9 3.4l-.2.7c.3.5.5 1.7.7 3.8-.3 2.5-.7 4.5-1.4 6.1-4.3 5.8-9 8.7-14.1 8.7h-1.9c-3.3-.4-4.9-1.9-4.9-4.5v-.2c0-2.9 1.6-5.9 4.9-9z"/></g></svg>