<svg enable-background="new 0 0 189 189" height="189" viewBox="0 0 189 189" width="189" xmlns="http://www.w3.org/2000/svg"><path d="m50.1 142.7c.5 4.8 4.8 8.3 9.6 7.8l52.6-5.4c4.8-.5 8.3-4.8 7.8-9.6l-1.5-15.1-70 7.2z" fill="#f6cb00"/><path d="m117 105.3c-.5-4.8-4.8-8.3-9.6-7.8l-52.6 5.4c-4.8.5-8.3 4.8-7.8 9.6l.4 3.5 70-7.2z" fill="#f6cb00"/><path d="m97.2 63.1s12.9 35.5 67.3 35.5l-22.7 30.1s-11.7-1.2-17.6-3.4l-3.5-25.9s-2.1-8.7-15-7.3-29.7 2.5-29.7 2.5z" fill="#fff"/><g fill="#f6cb00"><path d="m150.1 66c-1.4-8-8.4-14.1-16.8-14.1-9.4 0-17.1 7.7-17.1 17.1 0 9 6.9 16.3 15.7 17 .5 0 .9.1 1.4.1 9.4 0 17.1-7.7 17.1-17.1 0-1-.1-2-.3-3zm-28.5 3c0-7 5.7-12.7 12.7-12.7 3.9 0 7.3 1.7 9.7 4.5-1.7-.8-3.6-1.2-5.6-1.2-7.7 0-14 6.3-14 14 0 1.4.2 2.7.6 4-2.2-2.3-3.4-5.3-3.4-8.6z"/><path d="m80.2 64.6c4.8-3.1 6.8-9.4 4.5-14.8-2.6-6.1-9.7-9-15.8-6.4-5.8 2.5-8.7 9-6.7 14.9.1.3.2.6.3.9 2.6 6.1 9.7 9 15.8 6.4.7-.2 1.3-.6 1.9-1zm-9.9-17.7c4.6-1.9 9.8.2 11.8 4.7 1.1 2.5.9 5.2-.2 7.5 0-1.3-.2-2.7-.8-4-2.1-5-8-7.4-13-5.2-.9.4-1.7.9-2.4 1.5.9-1.9 2.5-3.5 4.6-4.5z"/></g></svg>