<svg enable-background="new 0 0 189 189" height="189" viewBox="0 0 189 189" width="189" xmlns="http://www.w3.org/2000/svg"><g fill="#f6cb00"><path d="m63.7 43.5 12 25.5s-6.7 4-14.7 20-7.5 26.6-7.5 26.6l-16 8.4 5-29.1-21.2-20.7 29.3-4.2z"/><path d="m109.7 118.4c-7.3 0-13.2 2.8-13.2 6.3v3.2c0 3.5 5.9 6.3 13.2 6.3s13.2-2.8 13.2-6.3v-3.2c.1-3.5-5.8-6.3-13.2-6.3z"/><path d="m96.5 139.3v6.3c0 3.5 5.9 6.3 13.2 6.3s13.2-2.8 13.2-6.3v-6.3c-4.1 2-8.6 3-13.2 2.9-4.5.1-9.1-.9-13.2-2.9z"/></g><path d="m91.4 62.1c7.6 4 16.6 4.2 24.2.3l9-15.7c.1-.1.2-.3.2-.4.5-1.5-.2-3.1-1.7-3.7l-.8-.3c-12.1-4.4-25.4-4.4-37.5 0l-.8.3c-.2.1-.3.1-.5.2-1.4.8-1.8 2.5-1 3.9z" fill="#fff"/><path d="m131 100.2v3.2c0 3.5 5.9 6.3 13.2 6.3s13.2-2.8 13.2-6.3v-3.2c0-3.5-5.9-6.3-13.2-6.3s-13.2 2.8-13.2 6.3z" fill="#f6cb00"/><path d="m122.1 69c-5.5 3.4-11.9 5.2-18.4 5.2-.7 0-1.5 0-2.2-.1-.3 7.7 1.3 15.4 4.6 22.4 1.2 2.1.5 4.9-1.6 6.1s-4.9.5-6.1-1.6c-.1-.2-.2-.4-.3-.6-2.5-5.2-4.2-10.8-4.9-16.5-1.6 1.8-3 3.7-4.3 5.8-1.4 2-4.2 2.5-6.3 1.1-1.9-1.3-2.5-3.9-1.3-5.9 3-4.7 6.6-9 10.9-12.6-2.4-.8-4.7-2-6.9-3.3-11 7.9-25.7 22.8-25.7 52.5 0 8.5 4.9 16.2 12.6 19.8 5.3 2.4 10.9 4 16.6 4.8-.1-.7-.2-1.4-.2-2.1v-19.1c0-8.3 8.9-14.4 21.3-14.4 4.6-.1 9.1.9 13.3 2.9v-13.1c0-6.9 6.3-12.3 15.5-13.8-4.4-7-10-12.9-16.6-17.5z" fill="#fff"/><path d="m144.2 117.7c-4.6.1-9.1-.9-13.2-2.9v6.3c0 3.5 5.9 6.3 13.2 6.3s13.2-2.8 13.2-6.3v-6.3c-4 2-8.6 3-13.2 2.9z" fill="#f6cb00"/><path d="m131 132.6v6.3c0 3.5 5.9 6.3 13.2 6.3s13.2-2.8 13.2-6.3v-6.3c-4.1 2-8.6 3-13.2 2.9-4.5.1-9-.9-13.2-2.9z" fill="#f6cb00"/></svg>