<svg enable-background="new 0 0 189 189" height="189" viewBox="0 0 189 189" width="189" xmlns="http://www.w3.org/2000/svg"><path d="m132.4 96.2-.2 41.9-21.6-.1.2-42c-.8.1-1.5.2-2.3.2-2 0-3.7-.3-5.4-.9l-.1 22.2-44.4-.2.1-21.3c-.7.1-1.2.1-1.8.1-2.1 0-4-.4-5.9-1.1l-.1 48.5c0 1.2 1 2.2 2.2 2.2l84.9.3c1.2 0 2.2-1 2.2-2.2l.2-48.5c-1.8.7-3.8 1.1-5.9 1.1-.9-.1-1.4-.1-2.1-.2z" fill="#fff"/><path d="m145.7 70.6-7.5-20.5c-.7-1.7-2.3-2.8-4.1-2.8l-76.6-.3c-1.8 0-3.5 1.1-4.1 2.8l-7.7 20.5c-1.2 2.8-1.7 5.7-1.7 8.8 0 7.2 5.7 12.9 12.8 12.9 7.2 0 12.9-5.7 12.9-12.8 0 7.2 5.7 12.9 12.8 12.9 7.2 0 12.9-5.7 12.9-12.8 0 7.2 5.7 12.9 12.8 12.9 7.2 0 12.9-5.7 12.9-12.8 0 7.2 5.7 12.9 12.8 12.9 7.2 0 12.9-5.7 12.9-12.8.6-3 0-6.1-1.1-8.9z" fill="#f6cb00"/><g fill="#fff"><path d="m79.5 112.2c.9.9 2.4.9 3.3 0l11.1-11.1c.9-.9.9-2.4 0-3.3s-2.4-.9-3.3 0l-11.1 11.1c-.9.9-.9 2.3 0 3.3z"/><path d="m76.5 97.8-11.1 11c-.9.9-.9 2.4 0 3.3s2.4.9 3.3 0l11.1-11.1c.9-.9.9-2.4 0-3.3-.9-.8-2.4-.9-3.3.1z"/></g></svg>