<svg enable-background="new 0 0 189 189" height="189" viewBox="0 0 189 189" width="189" xmlns="http://www.w3.org/2000/svg"><path d="m104.4 88.4 9.8-1.2-6.9-7 1.8-9.6-8.8 4.4-8.6-4.8 1.5 9.7-7.2 6.8 9.7 1.6 4.2 8.9z" fill="#f6cb00"/><path d="m116.2 133.2 5.8 2.1 32.2-88.3-19.6-7.1c-2.9 6.3-9.5 10.7-17 10.4-7.3-.3-13.8-5.3-16.2-12.3-1.3-3.7-1.2-7.2-.4-10.4l-18.1-6.6-32.2 88.3 10.1 3.7c1.5.6 2.6 2.1 2.3 3.7-.4 2.1-2.5 3.3-4.5 2.6l-10.3-3.7-8.7 24.4 19.5 7.1c2.7-5.9 8.9-9.9 15.9-9.2 6.2.6 11.5 5.1 13.4 11 1 3.2.9 6.2.1 8.9l22.3 8.1 8.9-24.3-6-2.2c-1.9-.7-2.8-3-1.7-4.9.8-1.3 2.6-1.8 4.2-1.3zm-31.7-6.8c-.9 1.2-2.5 1.5-3.8 1l-10.8-3.9c-1.5-.6-2.6-2.1-2.3-3.7.4-2.1 2.5-3.3 4.5-2.6l11 4c2 .7 2.8 3.3 1.4 5.2zm22 8c-.9 1.2-2.5 1.5-3.8 1l-10.8-3.9c-1.5-.6-2.6-2.1-2.3-3.7.4-2.1 2.5-3.3 4.5-2.6l11 4c2 .7 2.9 3.3 1.4 5.2zm1.9-40.3-8.8 16.9-8.1-17.3-18.8-3.1 13.9-13.1-2.9-18.9 16.7 9.2 17.1-8.6-3.6 18.7 13.4 13.6z" fill="#fff"/></svg>