<svg enable-background="new 0 0 126.8 43" height="43" viewBox="0 0 126.8 43" width="126.8" xmlns="http://www.w3.org/2000/svg"><g fill="#fff"><path d="m94.1 30.1h-7l3-16.9h-2l-3.3 18.8h9z"/><path d="m96.2 32h2l3.3-18.7h-2z"/><path d="m102.1 32h2l1.5-8.4h5.9l.3-1.8h-5.9l1.2-6.6h6.3l.3-1.8h-8.3z"/><path d="m113.1 32h8.4l.3-1.8h-6.4l1.2-6.8h5.8l.3-1.8h-5.8l1.1-6.3h6.3l.3-1.8h-8.3z"/><path d="m10.5 29.6c-.4.2-.8.4-1.3.6s-1.1.3-1.7.3c-1.5 0-2.5-.7-3.2-2s-.8-3.3-.3-5.9c.3-1.4.6-2.7 1-3.7s.9-1.8 1.4-2.4 1.1-1.1 1.7-1.3c.6-.3 1.2-.4 1.8-.4s1.2.1 1.6.2.9.3 1.2.5l.8-1.8c-.4-.2-.8-.3-1.4-.5-.5-.1-1.2-.2-2.1-.2-.8 0-1.7.2-2.5.5s-1.6.9-2.4 1.7c-.7.8-1.4 1.8-2 3s-1 2.7-1.3 4.5c-.3 1.7-.4 3.2-.3 4.4s.4 2.2.8 3 1 1.3 1.8 1.7c.7.4 1.6.5 2.5.5.7 0 1.5-.1 2.2-.2.7-.2 1.3-.4 1.8-.8z"/><path d="m21 32h2.1l-2.3-19h-1.1l-9 19h2l2.4-5.2h5.3zm-2.5-12.8 1-2.9h.1v2.8l.6 5.8h-4.2z"/><path d="m24.1 31.3c.4.2.9.5 1.5.7s1.5.3 2.6.3c1.7 0 3.1-.4 4.1-1.3 1.1-.9 1.8-2.1 2-3.7.2-.9.1-1.7-.1-2.4s-.6-1.3-1-1.8-.9-1-1.5-1.5c-.5-.4-1-.9-1.5-1.3s-.8-.9-1.1-1.4-.4-1-.2-1.7c.1-.7.5-1.3 1-1.8s1.3-.7 2.3-.7c.8 0 1.5.1 2 .2.6.2 1 .3 1.3.5l.9-1.8c-.4-.2-.9-.5-1.6-.6-.7-.2-1.4-.2-2.3-.2-1.4 0-2.7.4-3.7 1.1s-1.7 1.8-1.9 3.3c-.2.9-.1 1.7.1 2.4s.6 1.2 1 1.7.9 1 1.5 1.4c.5.4 1 .8 1.5 1.3.5.4.8.9 1.1 1.4s.3 1.1.2 1.8c-.2 1.1-.6 1.8-1.3 2.3s-1.6.7-2.6.7c-.8 0-1.5-.1-2-.3-.6-.2-1-.4-1.3-.7z"/><path d="m45.2 32h2l3.3-18.7h-2l-1.5 8.2h-6.9l1.4-8.2h-2l-3.3 18.7h2l1.5-8.6h6.9z"/><path d="m6.8 11h.4v-5.5h-.7v3.4l.1.8-.4-.8-2-3.5h-.3v5.5h.6v-3.4l-.1-.9.3.9z"/><path d="m10.5 10.9h2.4v-.5h-1.9v-2h1.7v-.5h-1.7v-1.9h1.8v-.5h-2.4v5.4z"/><path d="m16.2 5.5h-.6l1.2 5.5h.4l.9-3.6.1-.8.1.8.9 3.6h.4l1.2-5.5h-.6l-.7 3.6-.2.9-.1-.9-.9-3.6h-.3l-.9 3.6-.1.9-.1-.9z"/><path d="m28.2 10.9h.6v-2.1l1.4-3.3h-.6l-.9 2.3-.1.5-.1-.5-1-2.4h-.7l1.4 3.4z"/><path d="m32.8 9.4c0 .3.2.6.2.9.1.2.3.4.6.6.2.1.5.2.8.2.6 0 1.1-.2 1.4-.7.2-.6.4-1.3.4-2.2 0-.4 0-.8-.1-1.2-.1-.3-.2-.6-.3-.9-.1-.2-.3-.4-.6-.6-.2-.1-.5-.2-.8-.2-.6 0-1.1.2-1.3.7-.3.5-.4 1.2-.4 2.1 0 .5 0 .9.1 1.3zm.7-2.9c.2-.4.5-.6.9-.6.2 0 .4.1.6.2.1.1.3.3.4.5s.2.5.2.7c0 .3.1.6.1.9 0 .8-.1 1.3-.3 1.7s-.5.6-.9.6c-.2 0-.4-.1-.5-.2-.2-.1-.3-.3-.4-.5s-.2-.4-.2-.7c-.2-.3-.2-.6-.2-.9 0-.8.1-1.3.3-1.7z"/><path d="m39.3 10.9h.6v-2.5l.6.1 1.2 2.4h.7l-1.1-2.2-.3-.3c.3-.1.5-.3.7-.5.3-.3.3-.6.3-1 0-.3 0-.5-.1-.7s-.2-.3-.3-.5c-.1-.1-.3-.2-.5-.2s-.4-.1-.6-.1-.4 0-.6 0-.4 0-.6.1zm.6-4.9h.3.3c.3 0 .5.1.6.3s.2.4.2.7c0 .4-.1.6-.3.8-.1.2-.3.2-.6.2h-.5z"/><path d="m47.8 10.9h.7l-1.5-2.5-.3-.3.3-.2 1.4-2.3h-.7l-1.4 2.3-.3.1v-2.5h-.6v5.4h.6v-2.5h.3z"/><path d="m67.6 6.5c-9.2 0-16.7 7.5-16.7 16.8s7.5 16.7 16.7 16.7 16.7-7.5 16.7-16.8-7.5-16.7-16.7-16.7zm9 19.6-.2-.1-.1.1-2-.1h-3c-.5.5-1.2 1.7-2.1 3.6-1.7 2.7-2.8 4.8-3.4 6.5l-.5.1c-.8-.3-1.2-.6-1.3-.9-.3 0-.4-.1-.4-.3l-.1.1h-.1c-.5 0-.7-.2-.7-.6-.4 0-.6-.1-.6-.4 0-1.7 1.2-4.3 3.5-7.8v-.1h-.1l-5.2.4c-1.4 0-2.9-1-4.6-3.2l-.1-.5v-.1l3.1-4.2 5.1-8.2.7-.1c1 0 2.2.9 3.4 2.7v.3c-1.2 2.3-3 5.1-5.3 8.6v.1h.1l5.5-.1 3.5-8.2.6-.3c1.6.6 2.8 1.4 3.5 2.5v.1l-2 4.4-.6 1.6h1.7l.1.1.1-.1h.3l.5.1.8-.1h.5c.2 0 .3.2.3.5.4 0 .7.3.8.9.2 0 .7.6 1.3 1.6v.2c-.7.6-1.7.9-3 .9z"/></g></svg>