<svg enable-background="new 0 0 126.8 43" height="43" viewBox="0 0 126.8 43" width="126.8" xmlns="http://www.w3.org/2000/svg"><path d="m6.2 30.8h1.8v-17h-1.8zm13.1-6.2.3 2.5h-.1l-1-2.5-6.1-11h-1.1v17.2h1.7v-10.8l-.3-2.7h.1l1 2.7 6.1 11h1.1v-17.2h-1.7zm4.7 6.2h1.8v-7.6h5.2v-1.7h-5.2v-6h5.6v-1.7h-7.4zm18.9-14.9c-.4-.8-1-1.3-1.7-1.8-.7-.4-1.5-.6-2.5-.6-1.8 0-3.2.7-4.1 2.2s-1.3 3.7-1.3 6.5c0 1.3.1 2.5.3 3.6s.5 2 1 2.8c.4.8 1 1.3 1.7 1.8.7.4 1.5.6 2.5.6 1.8 0 3.2-.7 4.1-2.2s1.4-3.7 1.4-6.5c0-1.3-.1-2.5-.3-3.6-.4-1.1-.7-2-1.1-2.8zm-1.5 11.8c-.6 1.2-1.5 1.7-2.7 1.7-.6 0-1.2-.2-1.7-.6s-.8-.9-1.1-1.5-.5-1.4-.6-2.2c-.1-.9-.2-1.8-.2-2.7 0-2.4.3-4.2.9-5.3.6-1.2 1.5-1.7 2.7-1.7.7 0 1.2.2 1.7.6s.8.9 1.1 1.6.5 1.4.6 2.3.2 1.7.2 2.7c0 2.1-.3 3.9-.9 5.1zm10.2-4.6c.9-.3 1.6-.8 2.2-1.6.5-.8.8-1.9.8-3.2 0-.9-.1-1.6-.4-2.2-.2-.6-.6-1.1-1-1.4-.4-.4-.9-.6-1.4-.8-.6-.2-1.1-.2-1.7-.2-.5 0-1.1 0-1.7.1s-1.2.1-1.7.3v16.8h1.8v-7.9l1.8.4 3.5 7.4h2.1l-3.4-6.8zm-1.8-1.3h-1.4v-6.4c.2 0 .4-.1.8-.1h1c.8 0 1.5.3 1.9.9s.6 1.3.6 2.2c0 1.2-.3 2-.8 2.6-.4.5-1.2.8-2.1.8zm14.9.3-.6 2-.6-2-4-8.3h-1.5v16.9h1.7v-11l-.3-2.6h.1l.7 2.4 3.5 7.4h.6l3.3-7.4.8-2.4h.1l-.2 2.6v11.1h1.7v-17h-1.6zm11.9-8.5-5 17.2h1.7l1.3-4.7h4.7l1.3 4.7h1.9l-5-17.2zm-1.5 10.9 1.4-5.2.5-2.6.4 2.6 1.4 5.3zm6.6-9h4.1v15.3h1.8v-15.3h4.1v-1.7h-9.9zm12 15.3h1.8v-17h-1.8zm14.3-14.9c-.4-.8-1-1.3-1.7-1.8-.7-.4-1.5-.6-2.5-.6-1.8 0-3.2.7-4.1 2.2s-1.3 3.7-1.3 6.5c0 1.3.1 2.5.3 3.6s.5 2 1 2.8c.4.8 1 1.3 1.7 1.8.7.4 1.5.6 2.5.6 1.8 0 3.2-.7 4.1-2.2s1.4-3.7 1.4-6.5c0-1.3-.1-2.5-.3-3.6-.3-1.1-.6-2-1.1-2.8zm-1.5 11.8c-.6 1.2-1.5 1.7-2.7 1.7-.6 0-1.2-.2-1.7-.6s-.8-.9-1.1-1.5-.5-1.4-.6-2.2c-.1-.9-.2-1.8-.2-2.7 0-2.4.3-4.2.9-5.3.6-1.2 1.5-1.7 2.7-1.7.7 0 1.2.2 1.7.6s.8.9 1.1 1.6.5 1.4.6 2.3.2 1.7.2 2.7c0 2.1-.3 3.9-.9 5.1zm13.3-13.9v10.7l.3 2.5h-.1l-1-2.5-6.1-11h-1.1v17.2h1.7v-10.7l-.3-2.7h.1l1 2.7 6.1 11h1.1v-17.2z" fill="#fff"/></svg>