<svg enable-background="new 0 0 99.5 43" height="43" viewBox="0 0 99.5 43" width="99.5" xmlns="http://www.w3.org/2000/svg"><g fill="#fff"><path d="m36.4 1c-.5 0-1.2 1.3-2 4-3.5 7.3-5.3 11.8-5.3 13.3v.4c.2 0 .4.2.6.6l.8-.2.1.1.2-.2.2.4.1-.1.1.1.3-.1.5.3h.2c.3-.3 1.8-3.6 4.5-10.2h.1c.5 2.2 1 3.6 1.7 4 .6.1 1.2.4 1.9.9h.1c.4-.4.6-.6.8-.6.9-1.4 1.8-2.6 2.8-3.5-1.9 3.6-2.8 6.1-2.8 7.4v.7c0 .1.1.2.4.2.1.3.2.5.4.5l.2-.2c.4.1.6.2.6.4l.4-.2v.2h.6l.6-.9c.9-2.2 1.4-3.2 1.5-3.2l1.2-2.5v-.1l-.1-.1c.2 0 .6-.8 1.2-2.3 1.8-4.2 2.7-6.6 2.7-7.3v-.3c-.4-.5-.7-.8-.8-.8-.1-.2-.4-.4-1-.6l-.9.1c-.9 0-1.8.6-2.6 1.9-2.3 2.5-3.5 3.8-3.7 3.8-1.1 1.3-1.7 2-1.9 2-.3-.7-.5-1.6-.5-2.7l.2-3.9c-.5-1-1.1-1.5-1.9-1.5h-.5z"/><path d="m57.9 1.6-3.4-.1c-.8.1-1.2.5-1.2 1.1-3.9 8.6-6 13.8-6.5 15.7v.1l.1.1h.1l.1-.1h.2l-.1.3v.1l.1.1.3-.1c.6.2.9.3.9.5l.4-.1h.2l.5.5h.1c.4-.2.7-.5.8-.8 0-.5 1.8-1.1 5.3-1.7 3-.6 4.8-1 5.3-1.4 0-.1-.1-.2-.4-.3l.1-.1c-.1-.3-.5-.5-1.4-.5l.1-.1v-.1l-.1-.1h.4v-.2h-.5v-.1h.2c.2-.2.3-.3.4-.3v-.3c-.2 0-.4-.2-.4-.5l-.4.1h-.1v-.2l-6.7 1.2c.7-1.9 1.3-2.8 1.8-2.8 3.7-.8 5.6-1.3 5.6-1.5v-.1c0-.1-.1-.2-.4-.2v-.1-.1-.1c-.5-.2-.7-.4-.7-.8l.1-.3h-.2l.4-.2c0-.1-.2-.2-.7-.2v-.1l.3-.1-.2-.2c-1.5.1-2.4.2-2.7.3h-.1l1-2.1c2.1-.9 3.5-1.3 4.2-1.3 2.2-.3 3.3-.5 3.3-.7 0-.1-.1-.2-.4-.2v-.1l.1-.1-.8-.5h-1.1v-.1h.3v-.2c-.3 0-.5-.1-.5-.3h.3v-.1c0-.1-.2-.1-.5-.1v-.1h.3v-.2c-.2 0-.3-.1-.3-.4z"/><path d="m64.6 4.4c-3.6 3.5-5.5 6.5-5.5 9v.6l.1.9c1 3.2 2.9 4.7 5.9 4.7h.9c1.5 0 3-.4 4.5-1.3 3.2-2.1 4.9-3.4 4.9-4.1.9-.8 1.4-1.6 1.4-2.3l-.1-.3c-.4-1-.9-1.4-1.7-1.4-8 1.5-12 2.4-12 2.9 0 .1.2.2.7.2l-.2.3v.1h.5v.1h-.3v.2l.8.1v.1l-.6.1v.2h.6v.1l-.2.1c.5.3.8.5.8.7l2.8-.2h.1v.1c-1.5.6-2.7.8-3.5.8-1.4 0-2-.5-2-1.4 0-1.7.5-3.3 1.6-4.8 2.4-3.1 5.4-4.6 9-4.6l1.9.2c1 .4 1.6.6 2 .6h.1c.3 0 .5-.7.7-2.2-.7-1.6-1.9-2.4-3.6-2.4h-.3c-3.5 0-6.6 1-9.3 2.9z"/><path d="m84.7 1.7-.6 1.8-2.9 5.5c-1.3 1.8-2.3 3.3-2.9 4.3-1.4 1.6-2.1 2.7-2.1 3.4v.6c0 .1.1.2.3.2.2.4.4.5.7.5v.2h.2l.1-.1c0 .3.2.5.5.7h.1l.1-.1.2.5c.2 0 .6-.2 1-.7 1.2-1.7 1.8-2.7 2.1-2.8 0-.6 1.8-1.4 5.5-2.5h.1c.6 3.1 1 4.9 1.3 5.4l.7.7.9-.4.3.3.3-.2v.2h.2v-.2c.2.2.4.3.6.3h.1l.3-.3v-.4c0-1.1-.4-3.2-1.1-6.3l1.6-.3c2.4-.3 4.1-.7 4.8-1.1v-.2l-.6-.2.1-.1c0-.2-.6-.3-1.7-.4l-.4.1c0-.1-.2-.2-.6-.4l-.4.1c.3 0 .8-.1 1.4-.4v-.2l-.6.1h-.6v-.1l.6-.2v-.1l-1.8.1h-.1v-.2l-2.8.4c-.1 0-.2-.2-.3-.6v-.2c-.3-2.7-.6-4.6-.8-5.5-.4-1-1.4-1.6-3-1.6-.3.1-.5.2-.8.4zm1.3 6.6.3 1.5c0 .1-.5.3-1.5.5v-.1c.6-1.2 1-1.8 1.2-1.9zm6.8.6h.2v-.2h-.2zm.3.4-.2.1v-.1z"/><path d="m14.2 40.8h2l3.3-18.9h-1.8l-5.9 9.3-1 2.2h-.1l-.3-2.2-2.9-9.3h-1.7l-3.3 18.9h1.9l2.2-12.4.1-2.9h.1l.4 2.7 2.5 8.2h.7l5.2-8.2 1.3-2.7h.1l-.7 2.9z"/><path d="m20 40.8h2l3.3-18.9h-2z"/><path d="m35.3 38.9h-7l3-17h-2l-3.3 18.9h9.1z"/><path d="m46.5 38.9h-7l3-17h-2l-3.3 18.9h9.1z"/><path d="m48.6 40.8h2l3.3-18.9h-2z"/><path d="m55.2 35.4c0 1.2.2 2.2.5 3.1.4.8.9 1.5 1.6 2s1.6.7 2.7.7c2.1 0 3.8-.8 5.1-2.5s2.3-4.1 2.8-7.3c.3-1.5.4-2.8.4-4.1 0-1.2-.2-2.2-.5-3.1-.3-.8-.9-1.5-1.6-2s-1.6-.7-2.8-.7c-2.1 0-3.8.8-5.1 2.5s-2.3 4.1-2.8 7.3c-.2 1.5-.3 2.9-.3 4.1zm4.6-10.1c.9-1.3 2.1-1.9 3.4-1.9.8 0 1.4.2 1.8.6s.8 1 1 1.7.3 1.6.3 2.5c0 1-.1 2-.3 3-.5 2.7-1.2 4.7-2.1 6s-2.1 1.9-3.4 1.9c-.7 0-1.3-.2-1.8-.6-.4-.4-.8-1-1-1.7s-.3-1.6-.3-2.5c0-1 .1-2 .3-3 .5-2.7 1.2-4.7 2.1-6z"/><path d="m79 41.1h1.2l3.4-19.2h-1.9l-2.1 12-.2 2.8h-.1l-.6-2.8-4.8-12.3h-1.2l-3.4 19.2h1.9l2.1-12 .2-3h.1l.6 3z"/><path d="m83 40.1c.4.3.9.5 1.5.7.7.2 1.5.3 2.6.3 1.7 0 3.1-.4 4.2-1.3s1.8-2.1 2.1-3.7c.2-.9.1-1.7-.1-2.4s-.6-1.3-1-1.8-.9-1-1.5-1.5c-.5-.4-1-.9-1.5-1.3s-.8-.9-1.1-1.4-.4-1-.2-1.7c.1-.7.5-1.3 1-1.8s1.3-.7 2.3-.7c.8 0 1.5.1 2 .2.6.2 1 .3 1.3.5l1-1.8c-.4-.3-.9-.5-1.6-.6-.7-.2-1.5-.2-2.4-.2-1.5 0-2.7.4-3.7 1.1s-1.7 1.8-1.9 3.4c-.2.9-.1 1.7.1 2.4s.6 1.3 1 1.8.9 1 1.5 1.4c.5.4 1 .9 1.5 1.3s.8.9 1.1 1.4.3 1.1.2 1.8c-.2 1.1-.6 1.8-1.4 2.3-.7.5-1.6.7-2.6.7-.8 0-1.5-.1-2.1-.3s-1-.4-1.3-.7z"/><path d="m12.2 10.8h.4v-5.6h-.6v3.5l.1.8-.3-.8-2-3.6h-.5v5.6h.6v-3.5l-.1-.9.3.9z"/><path d="m15.9 10.7h2.4v-.5h-1.9v-2h1.7v-.6h-1.7v-1.9h1.9v-.5h-2.4z"/><path d="m21.8 5.2h-.6l1.2 5.6h.4l.9-3.6.1-.8.1.8.9 3.6h.4l1.1-5.6h-.6l-.7 3.6-.1.9-.1-.9-.9-3.6h-.3l-.9 3.6-.1.9-.1-.9z"/><path d="m5.6 18.4h.6v-2.2l1.4-3.3h-.6l-1 2.4-.1.5-.1-.5-1-2.4h-.7l1.4 3.3z"/><path d="m10.2 16.8c.1.4.2.6.3.9.1.2.3.4.6.6.2.1.5.2.8.2.6 0 1.1-.2 1.4-.7s.5-1.2.5-2.1c0-.4 0-.8-.1-1.2-.1-.3-.2-.6-.3-.9-.1-.2-.3-.4-.6-.6-.2-.1-.5-.2-.8-.2-.6 0-1.1.2-1.4.7s-.4 1.2-.4 2.1c-.1.5-.1.9 0 1.2zm.8-2.9c.2-.4.5-.6.9-.6.2 0 .4.1.6.2s.3.3.4.5.2.5.2.7c0 .3.1.6.1.9 0 .8-.1 1.4-.3 1.7-.3.5-.6.7-1 .7-.2 0-.4-.1-.5-.2-.2-.1-.3-.3-.4-.5s-.2-.5-.2-.7c0-.3-.1-.6-.1-.9 0-.8.1-1.4.3-1.8z"/><path d="m16.9 18.4h.6v-2.5l.6.1 1.2 2.4h.7l-1.1-2.2-.3-.3c.3-.1.5-.3.7-.5.2-.3.3-.6.3-1 0-.3 0-.5-.1-.7s-.2-.3-.3-.5c-.1-.1-.3-.2-.5-.3-.2 0-.4-.1-.6-.1s-.4 0-.6 0-.4 0-.6.1zm.6-5h.3.3c.3 0 .5.1.6.3s.2.4.2.7c0 .4-.1.7-.3.8-.2.2-.4.3-.7.3h-.5v-2.1z"/><path d="m25.4 18.4h.7l-1.6-2.6-.2-.3.3-.3 1.4-2.4h-.7l-1.4 2.4-.3.1v-2.6h-.6v5.5h.6v-2.5h.3z"/></g></svg>