<svg enable-background="new 0 0 150.9 43" height="43" viewBox="0 0 150.9 43" width="150.9" xmlns="http://www.w3.org/2000/svg"><path clip-rule="evenodd" d="m128.5 1.3c11.1 0 20 9 20 20.2 0 11.1-9 20.2-20 20.2-11.1 0-20-9-20-20.2-.1-11.2 8.9-20.2 20-20.2z" fill="#204786" fill-rule="evenodd"/><path d="m134.4 13.8c0-3.3-2.7-6-6-6s-6 2.7-6 6 2.7 6 6 6 6-2.7 6-6zm-13.2 6c-3.3 0-6 2.7-6 6s2.7 6 6 6 6-2.7 6-6-2.7-6-6-6zm14.4 0c-3.3 0-6 2.7-6 6s2.7 6 6 6 6-2.7 6-6-2.7-6-6-6zm-121.1 5.1.3 3.8h-.1l-1.2-3.8-7.6-16.3h-1.3v25.5h2.1v-15.9l-.3-3.9h.1l1.3 3.9 7.5 16.3h1.3v-25.5h-2.1zm15.2.1c0 2.4-.2 4.2-.7 5.3s-1.4 1.6-2.7 1.6c-.7 0-1.3-.1-1.7-.4-.5-.2-.9-.6-1.2-1.2-.3-.5-.5-1.3-.7-2.2-.1-.9-.2-2-.2-3.3v-15.8h-2.2v17.4c0 2.7.5 4.7 1.4 6.1.9 1.3 2.5 2 4.5 2 1.8 0 3.1-.7 4.1-2s1.4-3.5 1.4-6.6v-16.9h-2.1v16zm14.2-3.7-.7 3h-.1l-.7-2.9-5-12.4h-1.8v25.1h2.1v-16.5l-.4-3.8h.1l.9 3.5 4.3 10.9h.7l4.1-10.9.9-3.5h.1l-.3 3.8v16.5h2.2v-25.1h-1.9zm19.9 1.4c-.3-.5-.7-.9-1.1-1.1-.4-.3-.9-.5-1.3-.6v-.1c.5-.2 1-.5 1.4-1 .4-.4.7-.9 1-1.5.3-.5.4-1.1.6-1.8.1-.6.2-1.2.2-1.9 0-1.3-.2-2.3-.5-3.1s-.7-1.4-1.3-1.8c-.5-.4-1.1-.7-1.8-.9s-1.3-.2-2-.2c-.9 0-1.8 0-2.6.1s-1.5.2-2.1.4v24.7c.3.1.7.2 1.1.3s.8.1 1.2.1.8.1 1.2.1h1c.8 0 1.6-.1 2.4-.4s1.4-.7 2-1.3 1-1.4 1.4-2.3c.3-.9.5-2.1.5-3.4 0-1-.1-1.8-.3-2.5-.4-.8-.7-1.4-1-1.8zm-7.4-11.3c.2 0 .5-.1.9-.1s.9-.1 1.4-.1c.4 0 .9.1 1.3.2s.8.4 1.1.7.5.7.7 1.3c.2.5.3 1.2.3 2 0 1.2-.3 2.2-.8 3s-1.1 1.4-1.9 1.7c-.2 0-.5.1-.9.1s-.7 0-.9 0h-1.2zm5.9 17.8c-.2.6-.5 1.1-.8 1.5s-.7.7-1.2.9c-.4.2-.9.3-1.5.3-.2 0-.4 0-.6 0s-.5 0-.7-.1c-.2 0-.4 0-.6-.1-.2 0-.3-.1-.5-.1v-9.2h2c.5 0 1 .1 1.5.2s.9.3 1.3.7c.4.3.7.8 1 1.4.2.6.4 1.4.4 2.4 0 .8-.1 1.5-.3 2.1zm7.9-6.7h6.4v-2.5h-6.4v-8.5h6.9v-2.5h-9.1v25.1h9.3v-2.5h-7.1zm16.6.3c1.1-.4 2-1.2 2.7-2.4s1-2.8 1-4.8c0-1.3-.2-2.4-.5-3.3s-.7-1.6-1.2-2.1-1.1-.9-1.8-1.1-1.4-.3-2.2-.3c-.6 0-1.4 0-2.1.1-.8.1-1.5.2-2.1.4v24.8h2.2v-11.5l2.2.5 4.4 10.9h2.5l-4-10zm-2.3-2h-1.8v-9.4c.2-.1.5-.1 1-.2.4 0 .8-.1 1.2-.1 1.1 0 1.8.4 2.4 1.3.5.9.8 1.9.8 3.3 0 1.7-.3 3-1 3.8-.6.9-1.5 1.3-2.6 1.3zm17.7 1.3c-.6-.7-1.2-1.4-1.9-2s-1.3-1.2-1.9-1.7c-.6-.6-1.1-1.2-1.5-1.8s-.6-1.4-.6-2.2c0-1 .3-1.8.8-2.4s1.3-.9 2.3-.9c.9 0 1.6.1 2.3.3s1.2.5 1.5.7l.7-2.4c-.5-.3-1.1-.6-1.8-.8-.8-.2-1.6-.3-2.6-.3-1.6 0-2.9.5-3.8 1.5-1 1-1.5 2.5-1.5 4.5 0 1.2.2 2.3.6 3.2s.9 1.7 1.5 2.3c.6.7 1.2 1.3 1.9 1.9s1.3 1.1 1.9 1.7 1.1 1.2 1.5 1.9.6 1.5.6 2.4c0 1.4-.3 2.4-1 3.1s-1.6 1-2.7 1c-.9 0-1.6-.1-2.3-.4s-1.2-.6-1.6-.9l-.8 2.5c.4.3 1 .6 1.8.9s1.7.4 2.9.4c1.9 0 3.3-.6 4.3-1.8s1.5-2.8 1.5-4.9c0-1.2-.2-2.3-.6-3.2-.4-1-.9-1.8-1.5-2.6z" fill="#fff"/></svg>