<svg enable-background="new 0 0 97.3 43" height="43" viewBox="0 0 97.3 43" width="97.3" xmlns="http://www.w3.org/2000/svg"><path d="m73 1.3c10.8 0 19.4 8.8 19.4 19.5s-8.7 19.5-19.4 19.5-19.4-8.7-19.4-19.5 8.6-19.5 19.4-19.5z" fill="#204786"/><g fill="#fff"><path d="m65.2 5.5c-5.8 5.1-9.1 8.8-9.9 11.1 0 .2.2.4.7.5 0 .5.3.8.8.8h.1l.1-.2c0 .2.1.3.4.3.3.8.6 1.1 1 1.1l-.1.2c0 .3.2.5.7.5h.1l-.3 1c-3.8 7.7-5.7 11.8-5.7 12.2v.2l1.7 1.8h.1l.1-.2h.3c0 .3.1.5.3.5h.2l.1-.2v.2l.1.2.7-.2c.4.4.8.7 1.1.7s.8-.2 1.4-.7l1.8-3.9c5.4-12 8.9-19.6 10.6-22.8l-.1-.8c-1.2-1.4-2.6-2.3-4.2-2.6h-.8z"/><path d="m77.6 7.8c-7.3 7.1-11 12.9-11 17.5v1.5c.1.8.2 1.1.4 1.2 0 1.5 1 3.2 2.9 5l1.4 1.3c.9.8 2.4 1.3 4.3 1.7 3.7 0 7.6-1.9 11.6-5.8 4.2-4.7 6.3-8.7 6.3-12v-1.2c0-1.3-.5-2.5-1.6-3.7-1.8-3.1-3.1-4.8-3.9-5-.4-.6-.8-1-1-1-.7-1.4-1.6-2.2-2.9-2.2h-.1c-1.4.1-3.5.9-6.4 2.7zm0 9.3c3.4-3.8 6.4-5.8 8.8-6h.1l.9.7c1 .5 1.4 1.4 1.4 2.7-.2 1.6-1.1 3.8-2.6 6.5-4 5.7-8.1 8.5-12.1 8.5-2-.2-3-.5-3-1 .3-3 2.4-6.8 6.5-11.4z"/><path d="m5.1 33.4h2.2v-8.6c.1 0 .2 0 .4.1h.6.6.4c.8 0 1.6-.1 2.4-.4s1.4-.7 2-1.3 1.1-1.4 1.4-2.3c.4-.9.5-2.1.5-3.5s-.2-2.5-.6-3.5c-.4-.9-.9-1.6-1.5-2.1s-1.3-.9-2-1.1c-.8-.2-1.5-.3-2.3-.3-.7 0-1.4 0-2.1.1s-1.4.2-2 .4zm5.6-20.4c.5.2.9.4 1.3.8s.6.8.9 1.5c.2.6.3 1.4.3 2.3 0 1-.1 1.9-.4 2.6-.2.7-.6 1.2-.9 1.6-.4.4-.8.7-1.3.8-.5.2-1 .2-1.6.2-.1 0-.2 0-.4 0s-.3 0-.5 0-.3 0-.5 0-.3 0-.4-.1v-9.7c.2-.1.5-.1.9-.1h1.1c.5-.1 1 0 1.5.1z"/><path d="m18.6 33.4h2.2v-22.6h-2.2z"/><path d="m35 30.5c-.4.3-.8.5-1.3.7s-1.1.3-1.8.3c-1.6 0-2.9-.8-3.9-2.4s-1.5-3.9-1.5-7.1c0-1.7.1-3.2.4-4.4s.6-2.2 1.1-2.9 1-1.3 1.6-1.6 1.2-.5 1.9-.5 1.3.1 1.8.2 1 .3 1.4.5l.5-2.2c-.4-.2-1-.4-1.6-.5-.6-.2-1.4-.2-2.3-.2s-1.8.2-2.7.6-1.6 1.1-2.3 2-1.2 2.1-1.6 3.6-.6 3.3-.6 5.4.2 3.9.5 5.4.8 2.7 1.5 3.6c.6.9 1.4 1.6 2.2 2 .9.4 1.8.6 2.8.6.8 0 1.6-.1 2.3-.3s1.3-.5 1.8-1z"/><path d="m47.2 33.4h2.8l-5.9-10.5-1.3-1.3 1-1 5.3-9.7h-2.5l-5.3 10.1-1 .5v-10.7h-2.2v22.6h2.2v-10.5h1z"/></g></svg>