<svg enable-background="new 0 0 196.2 57" height="57" viewBox="0 0 196.2 57" width="196.2" xmlns="http://www.w3.org/2000/svg"><g fill="#fff"><path d="m86.9 16c.9 2.4 2.3 3.7 4.3 3.7 0 .6-.9 3-2.8 7.1-3.1 7-5.4 11.1-7.1 12.4-.8.3-1.5.8-2 1.3 0 .2.3.3.8.5 0 .3.2.6.5.6l.6-.2h.2l-.2.5v.1l.2.2.8-.3h.1l-.3.6.2.9.9-.3h.1l-.5.8.2.2c.5 0 1.6-.5 3.6-1.3l1.6.2c.8-.7 3.1-1.5 6.7-2.5 3.2-1.3 6.3-3.2 9.4-5.5 6-5.9 9-10.2 9-13.1 0-1.3-.7-2.5-2.1-4-3.4-2.4-7.2-3.7-11.3-3.7h-.8c-8.2.3-12.1 1-12.1 1.8zm10.9 5.4c.3-1.8.9-2.8 1.6-2.8 3.8.6 5.6 2.1 5.6 4.4 0 3.7-4.3 7.4-12.8 11.4z"/><path d="m116.8 14c-3.8 1.3-5.5 2.2-5.6 2.8v.8c0 .8 1 2.1 3.3 3.6-5.6 11.3-8.3 18-8.3 20.6v.5c.3.1.7.3.9.9l.5-.2c.3 0 .5.1.5.3l.3-.3c1 .3 1.5.8 1.5 1.3h.2c.8-2 1.3-3.1 1.5-3.1.5-1.3.8-2 .9-2 1.1-2.1 1.8-3.3 2.3-3.3l-.3-.3.8-1.7h.2v-.1l-.6 1.7h.5l.2-.8c.3-.2.8-1 1.5-2.4l6.8-2.3c1.3 4.9 2.6 9.4 4.3 13.1.5 0 .7.3.8.8l.3-.3.8.2c.2 0 .3-.2.5-.6h.2l.1.2h.3c.2 0 .3-.2.3-.5.2 0 .3.2.3.6h.3l.2-.2-.2-1.3.2-.5v-.1l-.2-.2c0-2.5-.8-7.1-2.3-13.6 6.1-3.2 9.2-5.4 9.2-6.8v-.7l-.2-.9c-1.3-4.5-5.3-6.8-12.1-6.8h-1.3c-5.4.4-8.1.7-8.6 1.6zm5.5 5.6c0-.9 1.8-1.3 5.8-1.3h.3l3.1.1v.2c-1.3 1.5-5.1 3.7-11.1 6.3h-.3c.2-.5 1-2.1 2.2-5.3z"/><path d="m143.8 14.5-1 3-5.1 8.9c-2.3 3-3.9 5.3-4.8 6.9-2.3 2.5-3.6 4.4-3.6 5.5v1c0 .2.2.3.6.3.3.6.8.8 1.1.8v.3h.3l.1-.1c0 .5.3.8.8 1.1h.1l.1-.1.3.8c.3 0 .9-.3 1.6-1.3 2-2.8 3.2-4.3 3.6-4.6 0-.9 3.2-2.3 9.3-4h.1c.9 5.1 1.7 7.9 2.2 8.8l1.3 1.1 1.4-.6.6.5.5-.3v.3h.3v-.5c.3.3.7.5 1 .5h.2l.5-.5v-.6c0-1.8-.7-5.3-1.8-10.2l2.6-.5c4.2-.5 6.9-1 8.3-1.8v-.2l-1-.3.2-.1c0-.3-.9-.6-3-.6l-.8.2c0-.2-.3-.3-1-.6l-.8.2v-.3c.6 0 1.3-.2 2.3-.6v-.3l-1 .2h-.8v-.2l1-.3v-.6l-2.3.1h-.2v-.3l-4.8.6c-.2 0-.3-.3-.5-1l-.2-.2c-.5-4.4-.9-7.4-1.3-8.9-.7-1.7-2.3-2.4-5.2-2.4-.1.4-.6.6-1.2.9zm2.3 10.7.5 2.3c0 .2-.8.5-2.4.8v-.1c.9-1.8 1.7-2.9 1.9-3zm11.6.8h.3v-.3h-.3zm.4.8-.3.1v-.1z"/><path d="m187.3 12.6c-1.3 2.1-1.8 3.4-1.8 3.8-.5.3-1.7 2.1-3.8 5.6v.2l.2.2c-.3 0-.8.3-.9 1.1-2.3 2.8-4.2 5.7-5.9 8.4h-.2l-.2-1.6.2-.2v-2.8l.3-1.8 1.7-4.3c0-.2-.2-.3-.5-.3l-.7-.8h-.8l-.2.2-.2-.2-.5.3h-.2l-.8-.2.2-.2v-.2l-.2-.2-1.1.2h-.5l-1.1-.2-.3.3-.9.3c-.3 2.5-.6 3.8-.8 3.8l-6.3 7.3v-.8l.2-.6-.2-.7v-.7l.2-.8-.2-.2.2-.8-.2-.9v-2.1l.7-6v-1.1l-.3-.9c-.9-1-2.1-1.7-3.4-1.8-1.8.3-2.8.8-2.8 1.7l-.3 8.4c0 4.8.1 7.8.3 9.4.6 5.2 1.3 7.6 2.1 7.6.5.6.8.8.9.8h.2l.2-.2c.6.3 1.3.7 1.8.7 1.4 0 2.5-1 3.3-3.1 1-2.3 2.3-4.3 4.1-6.2 0 3.8.8 6.3 2.2 7.6 0 .6 1.3 1.1 4 1.7.7 0 1.4-.3 2.2-.9l1.3-2.6 7.8-13.4c4.8-7.4 7.1-11.4 7.1-12.3v-.3l-.5-.2h-.3l-.2.2.2-.5c0-.2-.8-.5-2.2-.8l-.3.5h-.1c0-.3-.2-.6-.7-.7l-.5.2v-.2l-.2-.2c-.9.3-1.3.8-1.3 1.5zm-2.1 5.3v.2l-.3.3v-.2zm-1.5 1.8v.5h-.2v-.5z"/><path d="m22.7 42.5c-.8.2-1.7.3-2.4.3-.9 0-1.8-.1-2.6-.3s-1.7-.6-2.3-.8c-.8-.3-1.6-.6-2.3-.8s-1.6-.3-2.3-.3c-.6 0-1 .1-1.6.2v2.3c.3-.1.8-.2 1.3-.2.8 0 1.4.1 2.2.3s1.6.6 2.3.8c.8.3 1.7.6 2.6.8s1.8.3 2.8.3c.3 0 .8 0 1.3-.1.3-.1.8-.2 1.3-.3v-2.3h-.3zm-17.5-10.3c.3 1.6.8 2.9 1.3 3.9.7 1 1.4 2 2.4 2.4 1 .7 2.3.9 3.7.9 2.8 0 4.7-1 6-3.2s2-5.3 2-9.3c0-2-.1-3.7-.3-5.2-.3-1.6-.8-2.9-1.3-3.9-.7-1-1.4-2-2.4-2.4-1-.7-2.3-.9-3.8-.9-2.8 0-4.7 1-6 3.2s-2 5.3-2 9.3c-.1 2 0 3.7.4 5.2zm3.5-12.9c.9-1.7 2.2-2.4 3.9-2.4.9 0 1.8.3 2.4.8.7.6 1.3 1.3 1.7 2.3.3.9.8 2 .9 3.2s.3 2.4.3 3.8c0 3.3-.3 6-1.3 7.7-.9 1.7-2.2 2.4-3.9 2.4-.9 0-1.8-.3-2.3-.8-.7-.7-1.3-1.3-1.7-2.3-.3-.9-.8-2-.9-3.2s-.3-2.3-.3-3.8c-.1-3.5.4-6 1.2-7.7z"/><path d="m35.9 30.3c0 2.3-.3 4-.8 5.2-.7 1-1.7 1.6-3.1 1.6-.8 0-1.4-.1-2.1-.3-.6-.2-1-.7-1.3-1.1-.3-.6-.7-1.3-.8-2.1s-.2-2-.2-3.2v-15.5h-2.6v16.8c0 2.6.6 4.6 1.7 5.9s2.9 1.8 5.3 1.8c2.1 0 3.8-.7 4.8-2s1.7-3.3 1.7-6.3v-16.2h-2.5z"/><path d="m44.1 39h2.6v-24.1h-2.6z"/><path d="m64.2 36c-.3.3-.9.6-1.6.8s-1.3.3-2.1.3c-1.8 0-3.3-.8-4.6-2.6-1.1-1.7-1.8-4.2-1.8-7.5 0-1.8.2-3.3.6-4.8.3-1.3.8-2.3 1.3-3.1.6-.8 1.1-1.3 1.8-1.8.8-.3 1.4-.6 2.3-.6s1.6.1 2.2.2 1.1.3 1.7.7l.7-2.3c-.6-.2-1.1-.3-1.8-.7-.8-.2-1.7-.2-2.8-.2s-2.2.2-3.1.7c-1.1.4-2 1.2-2.8 2.2s-1.4 2.3-1.8 3.8c-.6 1.6-.8 3.4-.8 5.9 0 2.3.2 4.1.7 5.8.3 1.6 1 2.9 1.8 3.9s1.7 1.8 2.8 2.2c1 .3 2.2.8 3.3.8.9 0 1.8-.1 2.8-.3.8-.2 1.6-.6 2.2-1z"/><path d="m79.2 39h3.3l-7-11.3-1.5-1.3 1.3-1.1 6.3-10.3h-2.8l-6.3 10.8-1.3.5v-11.4h-2.6v24.1h2.6v-11.1h1.3z"/></g></svg>