<svg height="279.13324" viewBox="0 0 75.187721 73.854003" width="284.17407" xmlns="http://www.w3.org/2000/svg"><path d="m3379.7718 1969.9155v.01c-.6328 0-.8049.1422-1.0061.2305-.2012.088-.3833.1838-.6227.3147-.4787.2619-1.1721.667-2.2913 1.3379-2.2383 1.3419-6.1578 3.7389-13.1129 7.998l-4.346 2.6598-7.7381-5.5015c-2.4374-1.7332-4.6771-3.282-6.3381-4.3909-.8306-.5545-1.5119-.9973-2.0272-1.3126-.2576-.1577-.4656-.2799-.6796-.3907-.107-.055-.2023-.1073-.3984-.1778-.098-.035-.2111-.084-.4847-.1168-.1368-.016-.3191-.035-.615.019-.148.027-.3257.076-.5276.1762-.1009.05-.2068.1125-.3121.1912-.1052.079-.3044.2806-.3049.2811-.5945.6754-.4461.8328-.4729.9731-.027.1403-.03.2156-.035.2847-.01.1383-.012.2371-.012.3499.0002.2254.01.4862.023.8102.029.648.084 1.5331.1602 2.6138.1518 2.1613.3877 5.0906.6754 8.2848.2863 3.1771.5341 6.0782.6997 8.1835.079 1.0032.1367 1.7952.1741 2.3735-.01.01-.011.01-.02.014-.516.4023-1.2558.9777-2.1622 1.6837-1.8126 1.4121-4.2951 3.3443-7.0114 5.4585-2.7171 2.1149-5.2076 4.0568-7.0311 5.4808-.9118.712-1.6572 1.2935-2.1818 1.7048-.2623.2056-.4685.3687-.6155.4848-.074.058-.1324.1042-.1778.1405-.045.036.047-.054-.1715.1463-.5491.5052-.6661 1.2249-.6486 1.5839.017.3591.093.5299.1447.6604.1034.2611.1737.3525.2341.4434.1209.1817.2139.2903.3246.4216.2214.2626.495.5612.8376.9199.6853.7173 1.626 1.6523 2.6836 2.6624l3.7812 3.6111a2.0002 2.0002 0 0 0 1.2795.5509l4.5098.2305c2.5285.129 6.3724.2361 8.6677.2361h2.453l1.1974 5.3987 1.5472 6.9649a2.0002 2.0002 0 0 0 .5545.9958l4.24 4.1445c1.1775 1.1506 2.274 2.1976 3.1058 2.9672.4159.3847.7635.6975 1.0392.9354.1378.119.2528.2159.3808.3142.064.049.1252.099.2383.17.056.036.1227.077.2516.1369.1288.06.265.1912.8615.1912 1.073 0 1.6597-.7003 1.9084-1.1348.1506-.2633.2261-.5072.2754-.7488.01-.011 0-.01.01-.022.067-.1422.1834-.3773.3333-.6718.2999-.589.7397-1.4265 1.2697-2.4221 1.0598-1.991 2.4837-4.618 3.9263-7.2502 1.4427-2.6322 2.9047-5.2729 4.0411-7.2889.5681-1.0081 1.0565-1.8606 1.4139-2.4707.1039-.1774.1683-.2815.248-.4139.012 0 .013.0003.025-.01.4847-.095 1.2404-.2185 2.2051-.3556 1.9295-.2744 4.7094-.6123 8.123-.9808 3.0435-.3285 5.8393-.6561 7.9044-.9219 1.0325-.1328 1.8801-.2491 2.5022-.3457.3111-.048.5619-.091.7793-.1344.1087-.022.205-.041.3338-.076.064-.018.1345-.037.2537-.084s.2609.0002.723-.4744c.6691-.6805.6027-1.4722.5426-1.7931-.06-.3209-.1362-.4537-.1912-.5643-.1099-.2212-.1814-.3133-.2558-.416-.1488-.2055-.2999-.3844-.4904-.6036-.3809-.4384-.9039-1.0004-1.5565-1.6816-1.3051-1.3623-3.1176-3.1817-5.1444-5.1506l-6.3479-6.166 4.2131-10.2107c1.2975-3.1455 2.5197-6.0526 3.4376-8.1913.459-1.0694.842-1.9475 1.1172-2.559.1376-.3058.2496-.5477.322-.6971.016-.034.019-.039.03-.061-.029.042-.052.076-.1772.2155.4015-.4451.7984-1.4417.5917-2.2598-.2067-.818-.6461-1.2056-1.0036-1.5136-.9207-.7935-2.8504-2.0968-4.8829-3.4649-1.0165-.6842-2.0053-1.3381-2.7776-1.8304-.3861-.2461-.7143-.4499-.986-.6093-.1359-.08-.2538-.1479-.3886-.2165-.067-.034-.1361-.068-.2485-.1137-.1125-.045-.143-.1602-.799-.1602zm10.6722 9.9534c.049-.07.044-.082.037-.075 0 .01-.023.048-.037.075zm-10.9362-7.8279c.5427-.2082 9.4322 5.9236 9.0619 6.2508-.1474.1302-4.8718 3.0609-10.4985 6.5127-5.6268 3.4519-10.4761 6.4286-10.7761 6.6151-.4213.262-2.5401-1.0794-9.3033-5.89-4.8168-3.4262-8.8437-6.1442-8.9483-6.0395-.1591.1591.8404 13.7064 1.5647 21.2086l.2073 2.1409-10.448 8.1778c-5.7462 4.4978-10.4879 8.1727-10.5373 8.1664-.049-.01-1.824-1.6434-3.944-3.6385l-3.8545-3.6277 10.218-7.9793 10.2179-7.9794-.9663-10.695c-1.0709-11.8482-1.1172-12.6392-.7364-12.6266.1455 0 4.145 2.7733 8.8878 6.1521 4.7429 3.3788 8.7118 6.0926 8.8197 6.0301.1078-.063 4.7862-2.9258 10.3967-6.3624 5.6105-3.4365 10.3979-6.3237 10.6387-6.4161zm-32.2627 47.6167c.5394-.02 1.7123.023 3.0262.1158l3.1853.2263 2.3797 10.3301c1.3088 5.6816 2.3227 10.4905 2.2531 10.6862-.07.1957-1.9084-1.3397-4.086-3.4122l-3.959-3.7682-1.6303-6.9929c-.8965-3.8462-1.562-7.0613-1.479-7.1443.021-.021.1302-.034.31-.041zm9.508 21.5708c0 .024-.01.013-.01.032v-.01c.0003-.01.01-.017.01-.023zm3.9884.1912c-.012.2617-.037.3556-.059.416.025-.138.053-.2753.059-.416z" stroke-linecap="round" stroke-linejoin="round" transform="translate(-3320.1581 -1969.9155)"/></svg>