<svg enable-background="new 0 0 103.3 43" height="43" viewBox="0 0 103.3 43" width="103.3" xmlns="http://www.w3.org/2000/svg"><path d="m82.2 1.3c10.8 0 19.4 8.8 19.4 19.5s-8.7 19.5-19.4 19.5-19.4-8.7-19.4-19.5 8.6-19.5 19.4-19.5z" fill="#204786"/><g fill="#fff"><path d="m70.4 24.5s14.7-2.1 15.3 1.9c.5 3.4-3.3 4.9-16.3 7.1-.1.5-1.8 6.1-2.4 7.9l8-1.7c1.1-.2 16.9-3.3 17.5-13.6.1-.7 0-1.3 0-1.8-1.1-6.7-5.6-6.1-12.3-6.7 0-.1.5-4 1-5.4l13.5-2.4 1.4-8c-7.1 1.3-20 3.6-20 3.6-2.4 6.3-4.3 12.6-5.7 19.1z"/><path d="m16.2 8.6h-13.3v2.5h5.5v22.8h2.4v-22.8h5.5v-2.5z"/><path d="m27.3 33.9h2.5l-6.7-25.7h-1.3l-6.7 25.7h2.4l1.8-7.1h6.3zm-5.5-17.2.6-3.9h.1l.6 3.8 1.9 7.9h-5.1z"/><path d="m41.9 33.9h3l-6.5-11.8-1.3-1.4 1.1-1.2 5.8-10.9h-2.7l-5.8 11.3-1.1.5v-11.8h-2.4v25.3h2.4v-11.7h1.1z"/><path d="m47.8 33.9h10.1v-2.5h-7.7v-9.3h6.9v-2.5h-6.9v-8.6h7.5v-2.4h-9.9z"/></g></svg>