<svg enable-background="new 0 0 101.2 43" height="43" viewBox="0 0 101.2 43" width="101.2" xmlns="http://www.w3.org/2000/svg"><path d="m79.1 1.8c10.9 0 19.7 8.9 19.7 19.8s-8.8 19.8-19.7 19.8-19.7-8.8-19.7-19.8 8.8-19.8 19.7-19.8z" fill="#204786"/><g fill="#fff"><path d="m81.6 5h-7c-4.4 7.7-11.8 20.4-14.6 25.7l18-3.1c-.9 1.4-1.5 3.9-5.9 14.1l8.1-1c1.7-5 3.9-10.1 5.4-14.2.1-.3 6-.8 6.5-1 .3-.1 1.8-5.3 1.9-5.6.2-.5-6.2.6-6 .1 2.4-6.9 4.4-12.1 6.1-16h-6.7c-1.9 4.5-7 17.1-7 17.1l-8.4 1.2c5.2-9.7 6.5-11.5 9.6-17.3z"/><path d="m6.2 8.8h-3l5.8 26.6h1.7l4-17.2.5-4h.1l.5 4 4 17.2h1.9l5.7-26.6h-2.7l-3.3 17.2-.5 4.5-.5-4.5-4.1-17.2h-1.6l-4.1 17.2-.4 4.5h-.1l-.4-4.4z"/><path d="m30.5 34.9h2.7v-26.1h-2.7z"/><path d="m51.7 35.4h1.7v-26.6h-2.7v16.6l.4 3.9h-.1l-1.5-3.9-9.4-17h-1.6v26.6h2.6v-16.7l-.4-4.1 1.6 4.1z"/></g></svg>