<svg enable-background="new 0 0 189 189" height="189" viewBox="0 0 189 189" width="189" xmlns="http://www.w3.org/2000/svg"><path d="m108 35c0 5.8-5.4 11-11.1 11-5.8-.1-11-5.4-10.8-11.1.1-6 5.1-10.8 11.1-10.8 5.9-.2 10.9 4.9 10.8 10.9z" fill="#214686"/><path d="m156 158c0 2.3-1.8 4.1-4.1 4.1h-109.8c-2.1 0-3.9-1.8-3.9-3.9v-6.2c0-2.7 1.7-4.4 4.4-4.4h30.1v-15.3c0-2.9 1.7-4.5 4.5-4.5h39.3c2.7 0 4.4 1.7 4.4 4.4v7.7h30.3c3.2 0 4.8 1.5 4.8 4.8z" fill="#fad124"/><path d="m114.9 56.2c0-.8-.4-3.8-.5-4.4 0-.6-.2-1.2-.8-1.7-.2-.2-.6-.4-1-.5-.1 0-.1 0-.2-.1l-2.1-.7-.2-.1-1.3-.5c-.5-.1-1-.4-1.4-.4-1.3-.2-2.6-.1-3.8.7l-.2.1-.1.1c-.5.5-.8 1-1.1 1.4-.1.1-.1.2-.2.4l-3 3.9-2 2.9-.6-1c-.5-.6-1-1.3-1.4-1.9l-3.6-5c-.1-.1-.2-.4-.4-.5l-.4-.4c-.5-.5-1.1-.8-1.7-1.1l-.7-.1-1.9.5-.8.2-1.7.6c-.8.2-1.5.5-2.4.7-.1 0-.1 0-.2.1-.5.1-.7.4-1.1.5-.6.5-.8 1.2-.8 1.7 0 .6-.4 3.6-.5 4.4-.1 4.8-.1 9.5-.1 14.3 0 1.7 0 3.3.1 5 0 1.4.4 2.6.8 3.9.6 1.4 1.4 2.6 2.4 3.8 0 .1.1.1.1.1.2.2.4.5.5.8l.1 1.7c.1 3.6.4 7.3.5 10.8 0 .2 0 .6.1.8v11.8c0 6.3 4.4 10.7 10.7 10.7h5.5c6.3 0 10.7-4.4 10.7-10.7v-11.6c0-.2.1-.6.1-.8.1-3.6.2-7.3.5-10.8l.1-1.7c.1-.2.4-.6.5-.8 0-.1.1-.1.1-.1 1.1-1.2 1.9-2.4 2.4-3.8.5-1.2.8-2.5.8-3.9 0-1.7 0-3.3.1-5 .2-4.8.2-9.6.1-14.3zm31.7 11.2c0 4.4-4.1 8.3-8.5 8.2s-8.3-4.1-8.2-8.5c.1-4.5 3.9-8.2 8.5-8.2 4.5.1 8.3 4.1 8.2 8.5zm5.2 16.1c0-.6-.4-2.9-.4-3.3s-.1-1-.7-1.3l-.7-.4h-.1c-.6-.1-1.1-.4-1.7-.5h-.1l-1.1-.4-1.1-.4c-1-.2-1.9-.1-2.9.6v.2l-.1.1c-.4.4-.6.7-.8 1.1-.1.1-.1.2-.2.4l-2 2.9-1.5 2.1-.5-.7-1.1-1.4c-.8-1.3-1.8-2.5-2.6-3.8-.1-.1-.1-.2-.2-.4-.1-.1-.1-.2-.2-.2-.4-.4-.8-.7-1.3-.8l-.5-.1-1.4.4-.6.1-1.3.5c-.6.2-1.2.4-1.8.6h-.1c-.4.1-.6.2-.8.4-.5.4-.6.8-.6 1.3s-.4 2.7-.4 3.3c-.1 3.6-.1 7.3 0 10.8v3.8c0 1.1.2 2 .6 3 .4 1.1 1.1 2 1.8 2.9l.1.1c.1.2.2.4.4.6v1.3l.4 8.2v9.5c0 4.8 3.3 8.1 8.1 8.1h4.2c4.8 0 8.1-3.3 8.1-8.1v-9.5c.1-2.7.2-5.6.4-8.2v-1.3c.1-.2.2-.4.4-.6 0 0 0-.1.1-.1.8-.8 1.4-1.9 1.8-2.9s.6-1.9.6-3v-3.8c-.1-3.9-.2-7.4-.2-11.1zm-89.5-7.4c0 4.4-4.1 8.3-8.5 8.2s-8.3-4.1-8.2-8.5c.1-4.5 3.9-8.2 8.5-8.2 4.4.1 8.2 4.1 8.2 8.5zm5.3 16.1c0-.6-.4-2.9-.4-3.3s-.1-1-.7-1.3l-.7-.4h-.1c-.6-.1-1.1-.4-1.7-.5h-.1l-1.1-.4c-.4-.4-.7-.5-1.1-.5-1-.2-1.9-.1-2.9.6l-.1.1-.1.1c-.4.4-.6.7-.8 1.1-.1.1-.1.2-.2.4l-2 2.9-1.6 2-.5-.7-1.1-1.4c-.8-1.3-1.8-2.5-2.6-3.8-.1-.1-.1-.2-.2-.4-.1-.1-.1-.2-.2-.2-.4-.4-.8-.7-1.3-.8l-.5-.1-1.4.4h-.7l-1.3.5c-.6.2-1.2.4-1.8.6h-.1c-.4.1-.6.2-.8.4-.5.4-.6.8-.6 1.3s-.4 2.7-.4 3.3c-.1 3.6-.1 7.3 0 10.8v3.8c0 1.1.2 2 .6 3 .4 1.1 1.1 2 1.8 2.9l.1.1c.1.2.2.4.4.6v1.3l.4 8.2v9.5c0 4.8 3.3 8.1 8.1 8.1h4.1c4.8 0 8.1-3.3 8.1-8.1v-9.5c.1-2.7.2-5.6.4-8.2v-1.3c.1-.2.2-.4.4-.6 0 0 0-.1.1-.1.8-.8 1.4-1.9 1.8-2.9s.6-1.9.6-3v-3.8c.2-3.5.2-7 .2-10.7z" fill="#214686"/></svg>